<svg xmlns="http://www.w3.org/2000/svg" viewBox="0 0 121.52 134.27">
    <g id="Layer_2" data-name="Layer 2">
        <g id="Layer_1-2" data-name="Layer 1">
            <path class="cls-1" fill="#e8e8e8" d="M121.52,83.45A61.73,61.73,0,0,1,0,83.45Z"/>
            <polygon class="cls-2" fill="#aeaeae" points="55.01 90.74 66.51 90.74 61.04 0 61.04 0 55.01 90.74"/>
            <polygon class="cls-2" fill="#aeaeae" points="58.02 65.75 60.19 63.93 43.11 45.96 43.11 45.96 58.02 65.75"/>
            <path class="cls-3" fill="#c6c6c6" d="M34.81,51.26a10.64,10.64,0,1,0,16.3-13.68c-3.79-4.51-22.93-10.77-22.93-10.77S31,46.74,34.81,51.26Z"/>
            <polygon class="cls-2" fill="#aeaeae" points="61.5 39.73 63.13 41.1 74.22 26.09 74.22 26.09 61.5 39.73"/>
            <path class="cls-3" fill="#c6c6c6" d="M69.21,20.62a8,8,0,1,0,12.27,10.3c2.85-3.4,5-18.41,5-18.41S72.06,17.22,69.21,20.62Z"/>
        </g>
    </g>
</svg>