<?xml version="1.0" encoding="UTF-8"?>
<svg width="28px" height="32px" viewBox="0 0 28 32" version="1.1" xmlns="http://www.w3.org/2000/svg" xmlns:xlink="http://www.w3.org/1999/xlink">
    <!-- Generator: sketchtool 51.3 (57544) - http://www.bohemiancoding.com/sketch -->
    <title>DDD3D9A2-248D-47D8-8968-70B18DBEEDCD</title>
    <desc>Created with sketchtool.</desc>
    <defs></defs>
    <g id="Treender" stroke="none" stroke-width="1" fill="none" fill-rule="evenodd">
        <g id="07-done" transform="translate(-298.000000, -14.000000)" fill="#C6C6C6">
            <g id="topnav">
                <path d="M309.388277,41.9534127 L298.920277,46 L302.146143,38.1145193 C299.585835,35.5595422 298,32.0158575 298,28.0991579 C298,20.312408 304.268013,14 312,14 C319.731986,14 325.999999,20.312408 325.999999,28.0991579 C325.999999,35.8859078 319.731986,42.1983158 312,42.1983158 C311.107454,42.1983158 310.234417,42.1142008 309.388277,41.9534127 Z M306,30.1133233 C307.104569,30.1133233 308,29.2115507 308,28.0991579 C308,26.986765 307.104569,26.0849925 306,26.0849925 C304.89543,26.0849925 304,26.986765 304,28.0991579 C304,29.2115507 304.89543,30.1133233 306,30.1133233 Z M312,30.1133233 C313.104569,30.1133233 314,29.2115507 314,28.0991579 C314,26.986765 313.104569,26.0849925 312,26.0849925 C310.89543,26.0849925 310,26.986765 310,28.0991579 C310,29.2115507 310.89543,30.1133233 312,30.1133233 Z M318,30.1133233 C319.104569,30.1133233 320,29.2115507 320,28.0991579 C320,26.986765 319.104569,26.0849925 318,26.0849925 C316.89543,26.0849925 316,26.986765 316,28.0991579 C316,29.2115507 316.89543,30.1133233 318,30.1133233 Z" id="chat-icon"></path>
            </g>
        </g>
    </g>
</svg>