<?xml version="1.0" encoding="UTF-8"?>
<svg width="32px" height="32px" viewBox="0 0 32 32" version="1.1" xmlns="http://www.w3.org/2000/svg" xmlns:xlink="http://www.w3.org/1999/xlink">
    <!-- Generator: sketchtool 51.3 (57544) - http://www.bohemiancoding.com/sketch -->
    <title>4DAE9F7A-66AD-4F4A-8607-A3F3FB09E966</title>
    <desc>Created with sketchtool.</desc>
    <defs></defs>
    <g id="Treender" stroke="none" stroke-width="1" fill="none" fill-rule="evenodd">
        <g id="05-profile" transform="translate(-298.000000, -499.000000)" fill="#FFFFFF" fill-rule="nonzero">
            <g id="pic" transform="translate(8.000000, 67.000000)">
                <g id="bottom-sqr" transform="translate(0.000000, 408.000000)">
                    <path d="M306,24 C297.164065,24 290,31.1666452 290,40 C290,48.8385161 297.164065,56 306,56 C314.835935,56 322,48.8385161 322,40 C322,31.1666452 314.835935,24 306,24 Z M306,31.0967742 C307.496516,31.0967742 308.709677,32.3099355 308.709677,33.8064516 C308.709677,35.3029677 307.496516,36.516129 306,36.516129 C304.503484,36.516129 303.290323,35.3029677 303.290323,33.8064516 C303.290323,32.3099355 304.503484,31.0967742 306,31.0967742 Z M309.612903,47.483871 C309.612903,47.9114194 309.266258,48.2580645 308.83871,48.2580645 L303.16129,48.2580645 C302.733742,48.2580645 302.387097,47.9114194 302.387097,47.483871 L302.387097,45.9354839 C302.387097,45.5079355 302.733742,45.1612903 303.16129,45.1612903 L303.935484,45.1612903 L303.935484,41.0322581 L303.16129,41.0322581 C302.733742,41.0322581 302.387097,40.6856129 302.387097,40.2580645 L302.387097,38.7096774 C302.387097,38.282129 302.733742,37.9354839 303.16129,37.9354839 L307.290323,37.9354839 C307.717871,37.9354839 308.064516,38.282129 308.064516,38.7096774 L308.064516,45.1612903 L308.83871,45.1612903 C309.266258,45.1612903 309.612903,45.5079355 309.612903,45.9354839 L309.612903,47.483871 Z" id="info-icon"></path>
                </g>
            </g>
        </g>
    </g>
</svg>