<svg xmlns="http://www.w3.org/2000/svg" xmlns:xlink="http://www.w3.org/1999/xlink" viewBox="0 0 160 126"><defs><style>.cls-1{fill:#e8e8e8;}.cls-2{fill:#aeaeae;}.cls-3{fill:#c6c6c6;}.cls-4{fill:url(#linear-gradient);}.cls-5{fill:url(#linear-gradient-2);}</style><linearGradient id="linear-gradient" x1="16.9" y1="52.5" x2="31.27" y2="38.13" gradientUnits="userSpaceOnUse"><stop offset="0" stop-color="#aeaeae"/><stop offset="1" stop-color="#c6c6c6"/></linearGradient><linearGradient id="linear-gradient-2" x1="267.95" y1="52.5" x2="282.32" y2="38.13" gradientTransform="matrix(-1, 0, 0, 1, 411.05, 0)" xlink:href="#linear-gradient"/></defs><title>end-tress</title><g id="Layer_2" data-name="Layer 2"><g id="Layer_1-2" data-name="Layer 1"><path class="cls-1" d="M154,64.1A75.23,75.23,0,0,1,6,64.1Z"/><rect class="cls-2" x="11.44" y="52.58" width="7.63" height="22.88"/><path class="cls-3" d="M30.52,49.52A15.26,15.26,0,0,1,19.07,64.33a15.1,15.1,0,0,1-7.63,0A15.3,15.3,0,0,1,0,49.52c0-8.46,15.26-33,15.26-33s3.74,6,7.52,13.12S30.52,45.24,30.52,49.52Z"/><rect class="cls-2" x="33.73" y="46.16" width="9.77" height="29.29"/><path class="cls-4" d="M30.52,49.52a15.34,15.34,0,0,1-4.85,11.19,18.83,18.83,0,0,1-6.6-7.49c-.11-.21-.21-.43-.3-.64a17.5,17.5,0,0,1-1.5-7.12c0-3.59,2.39-9.56,5.51-15.82C26.63,36.88,30.52,45.24,30.52,49.52Z"/><path class="cls-3" d="M58.15,42.24a19.54,19.54,0,1,1-39.08,0C19.07,31.41,38.61,0,38.61,0S58.15,31.41,58.15,42.24Z"/><rect class="cls-2" x="140.93" y="52.58" width="7.63" height="22.88" transform="translate(289.48 128.03) rotate(180)"/><path class="cls-3" d="M129.48,49.52a15.26,15.26,0,0,0,11.45,14.81,15.1,15.1,0,0,0,7.63,0A15.3,15.3,0,0,0,160,49.52c0-8.46-15.26-33-15.26-33s-3.74,6-7.52,13.12S129.48,45.24,129.48,49.52Z"/><rect class="cls-2" x="116.5" y="46.16" width="9.77" height="29.29" transform="translate(242.78 121.62) rotate(180)"/><path class="cls-5" d="M129.48,49.52a15.34,15.34,0,0,0,4.85,11.19,18.83,18.83,0,0,0,6.6-7.49c.11-.21.21-.43.3-.64a17.5,17.5,0,0,0,1.5-7.12c0-3.59-2.39-9.56-5.51-15.82C133.37,36.88,129.48,45.24,129.48,49.52Z"/><path class="cls-3" d="M101.85,42.24a19.54,19.54,0,1,0,39.08,0C140.93,31.41,121.39,0,121.39,0S101.85,31.41,101.85,42.24Z"/></g></g></svg>