<svg xmlns="http://www.w3.org/2000/svg" viewBox="0 0 56.68 82.36">
    <g>
        <path fill="#fff" d="M40.74,82.36C29.2,82.36,18,75.52,13.68,69L6,61.25c-3.31-3.63-3.71-7.74-1.08-10.77a6.59,6.59,0,0,1,6.72-2.41A9.27,9.27,0,0,1,16.54,51L18,52.55V28.18a7.48,7.48,0,0,1,8.23-7.42,7.68,7.68,0,0,1,6.7,7.68V44.17a89.45,89.45,0,0,1,10.26,1.11c9.13,1.6,13.55,4.45,13.53,8.72V72.42c0,2.92-1.45,6.82-8.34,8.87A26.73,26.73,0,0,1,40.74,82.36ZM10.07,51.9a2.77,2.77,0,0,0-2.16,1.19c-1.59,1.85-.36,4,1,5.4l8.06,8.18C21.26,73.44,35.21,81,47.21,77.45c5.47-1.62,5.47-4.19,5.47-5V54c0-3.23-11.49-5.69-21.83-5.89l-2,0V28.44a3.64,3.64,0,0,0-3.11-3.7,3.38,3.38,0,0,0-2.67.88A3.46,3.46,0,0,0,22,28.18V62.87l-8.38-9.19A5.47,5.47,0,0,0,10.8,52,3.88,3.88,0,0,0,10.07,51.9Z"/>
        <path fill="#fff" d="M16.14,12.56a2,2,0,1,1-2.82,2.83L8,10.12a2,2,0,0,1,2.83-2.83Z"/>
        <path fill="#fff" d="M27.51,2V9.46a2,2,0,0,1-4,0V2a2,2,0,0,1,4,0Z"/>
        <path fill="#fff" d="M43,10.12,37.7,15.39a2,2,0,0,1-2.82-2.83l5.27-5.27A2,2,0,0,1,43,10.12Z"/>
        <path fill="#fff" d="M11.46,24.82a2,2,0,0,1-2,2H2a2,2,0,0,1,0-4H9.46A2,2,0,0,1,11.46,24.82Z"/>
        <path fill="#fff" d="M51,24.82a2,2,0,0,1-2,2H41.56a2,2,0,0,1,0-4H49A2,2,0,0,1,51,24.82Z"/>
    </g>
</svg>