<?xml version="1.0" encoding="UTF-8"?>
<svg width="24px" height="26px" viewBox="0 0 24 26" version="1.1" xmlns="http://www.w3.org/2000/svg">
    <g stroke="none" stroke-width="1" fill="none" fill-rule="evenodd">
        <g transform="translate(-228.000000, -18.000000)" fill="#C6C6C6">
            <path d="M235.864759,29.9648327 C235.952973,30.2950108 236,30.6420135 236,31 C236,31.3579865 235.952973,31.7049892 235.864759,32.0351673 L245.026351,37.3246148 C245.758524,36.5113446 246.819546,36 248,36 C250.209139,36 252,37.790861 252,40 C252,42.209139 250.209139,44 248,44 C245.790861,44 244,42.209139 244,40 C244,39.6905792 244.035133,39.3893642 244.101627,39.1001265 L234.879929,33.7759763 C234.152381,34.5305953 233.131008,35 232,35 C229.790861,35 228,33.209139 228,31 C228,28.790861 229.790861,27 232,27 C233.131008,27 234.152381,27.4694047 234.879929,28.2240237 L244.101627,22.8998735 C244.035133,22.6106358 244,22.3094208 244,22 C244,19.790861 245.790861,18 248,18 C250.209139,18 252,19.790861 252,22 C252,24.209139 250.209139,26 248,26 C246.819546,26 245.758524,25.4886554 245.026351,24.6753852 L235.864759,29.9648327 Z" id="Combined-Shape"></path>
        </g>
    </g>
</svg>